<svg width="31" height="43" fill="none" xmlns="http://www.w3.org/2000/svg"><path d="M.008 3.324A2.478 2.478 0 012.486.845h18.176L30.99 9.52v30.156a2.478 2.478 0 01-2.479 2.478H2.486a2.478 2.478 0 01-2.478-2.478V3.324z" fill="#D22600"/><path d="M20.664.845v6.197a2.478 2.478 0 002.478 2.478h7.85" fill="#AC2200"/><path d="M8.232 36.35c-.527 0-1.052-.17-1.562-.51-1.06-.704-1.259-1.589-1.239-2.207.072-2.173 3.009-4.386 5.626-5.93a36.58 36.58 0 00.434-5.86c-2.178-1.94-4.547-4.57-4.255-6.629.082-.573.4-1.358 1.45-1.842.38-.175.76-.263 1.129-.263 2.15 0 3.42 2.778 3.594 7.836a37.472 37.472 0 004.856 3.472c1.556-.517 3.62-1.067 5.348-1.067 1.322 0 2.293.33 2.887.98.326.358.696.994.604 1.992-.139 1.506-1.193 2.406-2.822 2.406-1.89 0-4.357-1.143-6.22-2.191a37.24 37.24 0 00-5.251 2.391c-.65 3.49-1.961 7.422-4.58 7.422zm2.287-6.013c-1.27.873-4.074 3.03-2.778 3.89 1.323.878 2.384-2.377 2.777-3.89zm10.178-4.616c1.278.597 4.349 1.83 4.478.424.128-1.395-3.13-.762-4.478-.424zm-7.522.764a.107.107 0 00.109.007 40.382 40.382 0 012.566-1.172.11.11 0 00.068-.091 40.618 40.618 0 01-2.398-1.707.118.118 0 00-.118-.015c-.038.99-.114 1.995-.227 2.978zM9.497 15.131c-1.15.53.954 2.956 1.828 3.87-.148-1.256-.682-4.399-1.828-3.87z" fill="#fff"/></svg>