<svg width="31" height="44" fill="none" xmlns="http://www.w3.org/2000/svg"><path d="M.008 2.769c0-1.44 1.11-2.605 2.478-2.605h18.176L30.99 9.282V40.98c0 1.44-1.11 2.606-2.479 2.606H2.486c-1.369 0-2.478-1.167-2.478-2.606V2.77z" fill="#3C8BEA"/><path d="M20.664.164v6.513c0 1.439 1.11 2.605 2.478 2.605h7.85" fill="#17539B"/><path d="M6.967 30.817H4.539V21.41h2.273c2.298 0 4.493.774 4.493 4.656 0 3.826-2.104 4.75-4.338 4.75zm.155-7.777h-.44v6.148h.44c1.174 0 1.962-.665 1.962-3.122 0-2.51-.839-3.026-1.962-3.026zm8.374 8.007c-2.35 0-3.59-1.886-3.59-4.94 0-2.985 1.24-4.94 3.59-4.94 2.35 0 3.59 1.887 3.59 4.94 0 2.986-1.24 4.94-3.59 4.94zm0-8.238c-.994 0-1.394.991-1.394 3.299 0 2.306.413 3.297 1.394 3.297 1.02 0 1.394-1.018 1.394-3.297 0-2.308-.4-3.3-1.394-3.3zm10.338.706c-.49-.42-1.007-.679-1.69-.679-1.227 0-2.106.964-2.106 3.258 0 2.253.827 3.216 2.054 3.216.878 0 1.433-.38 1.937-.787l.968 1.303c-.659.665-1.627 1.221-3.047 1.221-2.466 0-4.145-1.724-4.145-4.954 0-3.149 1.795-4.927 4.184-4.927 1.29 0 2.142.408 2.891 1.046l-1.046 1.303z" fill="#fff"/></svg>