<svg width="66" height="66" fill="none" xmlns="http://www.w3.org/2000/svg"><path d="M64.862 30.883H50.308v-2.81c0-.41-.222-.79-.58-.99l-15.59-8.762V13.86h3.084v1.696c0 .628.51 1.137 1.138 1.137h9.297a1.138 1.138 0 001.07-1.524l-.934-2.652.945-2.594a1.138 1.138 0 00-1.07-1.525h-4.233v-1.65c0-.629-.51-1.138-1.138-1.138h-8.16V4.222a1.138 1.138 0 00-2.275 0V18.32l-15.59 8.75c-.357.201-.58.58-.58.99v2.811H1.138A1.14 1.14 0 000 32.01v29.768c0 .629.51 1.138 1.138 1.138h63.724c.629 0 1.138-.51 1.138-1.138V32.021c0-.628-.51-1.138-1.138-1.138zM43.435 12.722l-.046-.045v-1.958h2.595l-.467 1.457a1.139 1.139 0 000 .785l.535 1.457h-6.554v-.558h2.799c.628 0 1.138-.51 1.138-1.138zm-9.297-4.836h7.021v3.698h-7.021V7.886zM15.692 60.64H2.276V33.16h13.416v27.48zm16.17 0h-5.974V47.645h5.974V60.64zm8.25 0h-5.974V47.645h5.974V60.64zm7.966 0h-5.69V46.507c0-.628-.51-1.138-1.138-1.138h-16.5c-.628 0-1.138.51-1.138 1.138V60.64h-5.69V28.778L33 20.29l15.032 8.444.046 3.277v28.63zm15.646 0H50.308V33.16h13.416v27.48z" fill="#fff"/><path d="M32.998 23.771a4.78 4.78 0 00-4.767 4.78 4.768 4.768 0 104.767-4.78zm0 7.26a2.492 2.492 0 010-4.984 2.504 2.504 0 012.492 2.503h.012a2.492 2.492 0 01-2.504 2.481zM7.291 35.663H5.016v4.551H7.29v-4.551zm5.614 0h-2.276v4.551h2.276v-4.551zm13.029 0h-4.551v2.276h4.552v-2.276zm9.34 0h-4.551v2.276h4.551v-2.276zm9.344 0h-4.552v2.276h4.552v-2.276zm-18.684 5.302h-4.551v2.276h4.552v-2.276zm9.34 0h-4.551v2.276h4.551v-2.276zm9.344 0h-4.552v2.276h4.552v-2.276zM7.291 44.618H5.016v4.552H7.29v-4.552zm5.614 0h-2.276v4.552h2.276v-4.552zm-5.614 8.967H5.016v4.552H7.29v-4.552zm5.614 0h-2.276v4.552h2.276v-4.552zM55.37 35.663h-2.276v4.551h2.276v-4.551zm5.613 0h-2.276v4.551h2.276v-4.551zm-5.613 8.955h-2.276v4.552h2.276v-4.552zm5.613 0h-2.276v4.552h2.276v-4.552zm-5.613 8.967h-2.276v4.552h2.276v-4.552zm5.613 0h-2.276v4.552h2.276v-4.552z" fill="#fff"/></svg>