<svg width="68" height="68" fill="none" xmlns="http://www.w3.org/2000/svg"><path d="M67.956 38.217a1.115 1.115 0 00-.03-.595C67.147 26.393 57.855 17.656 46.6 17.57c-3.757-12.593-17.01-19.756-29.603-16C4.406 5.328-2.757 18.582 1 31.174a23.794 23.794 0 0013.056 14.905 30.303 30.303 0 00-6.174 4.373l-3.233 2.964a3.4 3.4 0 00.256 5.226l3.645 2.733a30.456 30.456 0 0018.163 6.054h3.244a30.457 30.457 0 0018.161-6.054l1.283-.962C60.064 58.968 68.014 49.857 68 39.096c0-.297-.033-.585-.044-.879zm-5.943-10.454a19.128 19.128 0 013.626 9.544l-.96.48-5.565-3.709 1.807-6.315h1.092zm-7.668-6.228a19.331 19.331 0 015.755 3.961h-.033c-.506 0-.95.336-1.09.823l-2.123 7.432-3.641 1.68L47.6 31.69v-4.47l6.317-4.42c.402-.284.575-.795.428-1.265zm-25.6 5.358c-.12.1-.22.223-.292.363a1.17 1.17 0 00-.033.123l-3.017-3.016 3.601-3.6c.958.87 1.984 1.661 3.07 2.365h-.002a21.648 21.648 0 00-3.326 3.765zm-1.49 2.524a21.356 21.356 0 00-2.246 8.16 23.598 23.598 0 00-4.798-8.023l3.588-3.592 3.455 3.455zm2.675-.156l.907.453 1.829 4.572-4.558 4.564-.875-.438a19.118 19.118 0 012.697-9.151zm-2.104 11.977c.437.217.964.132 1.308-.213l5.139-5.138 4.457 1.783 2.114 7.397a.96.96 0 00.077.166 30.22 30.22 0 00-12.587-2.737c-.267 0-.534.01-.801.018l-.002-.006c-.09-.508-.177-1.02-.227-1.532l.523.262zm11.709-5.683l-4.663-1.865-2.085-5.213a1.134 1.134 0 00-.546-.594l-1.02-.512a19.353 19.353 0 017.369-5.842c-.148.47.025.981.427 1.265l6.317 4.426v4.47l-5.8 3.865zm6.932-1.9l5.365 3.585c.01.024.007.05.018.073.021.04.045.077.07.113l-1.774 6.203h-7.358l-1.804-6.316 5.483-3.657zm5.16-13.103v.006l.295.874-5.455 3.814-5.454-3.82.294-.873a18.774 18.774 0 0110.32 0zm-7.356-2.876a21.382 21.382 0 00-10.328 3.94 21.58 21.58 0 01-3.334-2.457l9.192-9.19a21.507 21.507 0 014.47 7.707zm-6.086-9.3l-9.18 9.179a21.467 21.467 0 01-5.473-12.867l-.131-1.829a21.45 21.45 0 0114.784 5.516zM21.14 3.024l.13 1.824a23.72 23.72 0 006.13 14.314l-3.598 3.598L9.417 8.375a21.397 21.397 0 0111.724-5.35zM7.815 9.978l14.383 14.385-3.589 3.589a23.726 23.726 0 00-14.321-6.12l-1.826-.13A21.398 21.398 0 017.815 9.978zM2.298 23.963l1.829.13A21.48 21.48 0 0117 29.557l-9.19 9.19a21.455 21.455 0 01-5.513-14.784zM9.4 40.366l9.208-9.203a21.436 21.436 0 015.318 11.661 30.145 30.145 0 00-7.046 1.927 21.59 21.59 0 01-7.48-4.385zm41.16 16.32c-.047.052-.099.1-.154.142l-3.65 2.734a28.176 28.176 0 01-16.801 5.6h-3.244a28.176 28.176 0 01-16.8-5.6l-3.646-2.734a1.133 1.133 0 01-.086-1.742l3.228-2.964a27.96 27.96 0 017.82-5.034c.172-.032.334-.104.473-.21a27.935 27.935 0 0129.56 5.244l3.232 2.964c.46.423.492 1.14.069 1.6zm-1.774-6.235a30.312 30.312 0 00-6.521-4.556h8.265l2.494 2.494-2.043 4.08-2.195-2.018zm4.035 6.824a3.233 3.233 0 00-.18-3.06l2.459-4.92h6.532l.504 1.01a19.19 19.19 0 01-9.315 6.97zm10.71-9.245l-.179-.374a1.133 1.133 0 00-1.02-.627H54.87l-2.597-2.597 1.998-6.993 3.428-1.581 6.272 4.18c.338.226.77.253 1.133.072l.593-.297c-.1 2.866-.84 5.674-2.166 8.216z" fill="#fff"/></svg>