<svg width="77" height="73" fill="none" xmlns="http://www.w3.org/2000/svg"><path d="M36.577 35.259a3.35 3.35 0 00.198-1.348c-.098-1.738-1.5-3.069-3.191-3.025l-5.038.124a7.855 7.855 0 01-4.884-1.55 8.37 8.37 0 01-1.031-.899c1.465-.913 2.45-2.588 2.45-4.5 0-2.885-2.242-5.233-4.998-5.233-2.757 0-4.999 2.348-4.999 5.234 0 .996.268 1.929.732 2.723l-2.463.478a12.782 12.782 0 00-6.19 2.532 18.163 18.163 0 00-3.324 3.31L.668 37.66a3.3 3.3 0 00-.644 2.398 3.229 3.229 0 001.205 2.179c.549.432 1.19.642 1.83.642.91 0 1.814-.423 2.438-1.232l3.17-4.101a8.199 8.199 0 012.615-2.227l-1.98 8.45-.002.006-.002.007a14.992 14.992 0 00.085 6.799l1.102 4.457S3.681 64.624 3.146 65.34a2.614 2.614 0 00-.498 1.888 2.56 2.56 0 00.93 1.702l3.412 2.752a3.06 3.06 0 002.345.662 3.125 3.125 0 002.106-1.267 3.429 3.429 0 00-.064-4.14l-.623-.791 6.226-8.002a3.816 3.816 0 00.747-2.95l-.281-3.448 4.448 3.185.014.01c.144.202.18.472.08.714 0 0-3.913 9.291-4.286 10.111a2.64 2.64 0 00-.094 1.958c.22.644.668 1.159 1.26 1.448l3.903 1.91c.433.212.89.313 1.339.313 1.195 0 2.341-.71 2.88-1.916.63-1.411.25-3.067-.922-4.026l-.773-.63 1.185-2.476c.247-.517.048-1.145-.445-1.404-.493-.258-1.093-.05-1.34.467l-1.1 2.296-2.283-1.106 2.512-6.119a2.92 2.92 0 00-.065-2.37l2.399-2.826c.426.575.742 1.236.928 1.951.121.465.524.77.963.77a.962.962 0 00.264-.037c.532-.152.846-.727.7-1.284a7.704 7.704 0 00-2.191-3.707l-5.46-5.258 1.954-5.626c.108-.31.206-.623.294-.938a17.125 17.125 0 004.777.584.944.944 0 00.05-.002l2.163-.168a5.98 5.98 0 00-1.007 3.337c0 3.218 2.504 5.835 5.583 5.835s5.583-2.617 5.583-5.834c0-2.712-1.78-4.998-4.182-5.649zM25.18 68.594c-.275.615-.976.88-1.563.594l-3.902-1.91a.45.45 0 01-.227-.26.475.475 0 01.017-.351l.98-2.157 2.945 1.44 1.408 1.152c.435.355.575.969.342 1.492zM20.082 20.92c1.655 0 3.001 1.41 3.001 3.142s-1.346 3.141-3 3.141c-1.655 0-3.001-1.409-3.001-3.141 0-1.733 1.346-3.142 3-3.142zM7.114 36.23l-3.17 4.102c-.378.489-1.057.593-1.514.233a1.132 1.132 0 01-.424-.764 1.156 1.156 0 01.263-.89l3.169-4.552a16.103 16.103 0 012.903-2.876 10.843 10.843 0 015.607-2.182c.4-.036.786.097 1.086.376.3.28.473.665.485 1.085.024.805-.56 1.488-1.33 1.555a9.847 9.847 0 00-1.736.31c-2.117.577-3.963 1.823-5.339 3.603zM9.858 69.8a1.152 1.152 0 01-.78.47 1.13 1.13 0 01-.868-.245l-3.413-2.752a.471.471 0 01-.078-.644c.39-.521.877-1.174 1.405-1.883l2.574 2.076 1.137 1.445c.35.446.36 1.076.023 1.534zm-.531-5.13l-1.994-1.595 4.744-6.773H15.7a1.636 1.636 0 01-.27.521L9.327 64.67zm12.97-11.985l-5.462-3.911a.961.961 0 00-1.067-.04 1.06 1.06 0 00-.492.992l.367 4.485h-3.299l-1.027-4.154a12.806 12.806 0 01-.223-4.993h8.712l4.93 4.747-2.44 2.874zm-.858-15.306l-1.944 5.593h-7.95l1.982-8.453c.275-.053.551-.094.827-.118 1.83-.158 3.218-1.785 3.162-3.703a3.733 3.733 0 00-.646-1.99l.685-.134a4.798 4.798 0 002.9.705c1.091.856 1.736 2.196 1.736 3.635 0 1.528-.253 3.03-.752 4.465zm6.876-1.729a15.103 15.103 0 01-4.28-.54c.102-.724.154-1.457.154-2.196a6.99 6.99 0 00-.043-.764 9.696 9.696 0 004.447.951l5.038-.124c.6-.015 1.116.46 1.15 1.058.018.31-.083.605-.282.832a1.049 1.049 0 01-.818.367l-5.366.416zm6.86 9c-1.976 0-3.585-1.679-3.585-3.743 0-2.063 1.609-3.743 3.586-3.743 1.977 0 3.585 1.68 3.585 3.743 0 2.064-1.608 3.744-3.585 3.744z" fill="#fff"/><path d="M27.597 58.712c.551 0 .998-.468.998-1.046 0-.577-.447-1.045-.998-1.045-.552 0-1 .468-1 1.045 0 .578.448 1.046 1 1.046zm12.479-42.22a3.339 3.339 0 01-.197-1.342c.098-1.73 1.494-3.056 3.178-3.013l5.017.124a7.822 7.822 0 004.863-1.544c.367-.269.711-.57 1.027-.895-1.46-.909-2.44-2.577-2.44-4.48 0-2.874 2.233-5.212 4.978-5.212 2.744 0 4.977 2.338 4.977 5.212 0 .992-.267 1.92-.728 2.711l2.452.477a12.728 12.728 0 016.164 2.52 18.083 18.083 0 013.31 3.297l3.158 4.536c.515.679.743 1.525.641 2.387a3.215 3.215 0 01-1.2 2.17 2.93 2.93 0 01-1.823.64c-.905 0-1.805-.422-2.427-1.226l-3.157-4.085a8.164 8.164 0 00-2.604-2.217l1.973 8.414v.007l.003.007a14.93 14.93 0 01-.084 6.77l-1.098 4.438s6.776 9.546 7.308 10.258a2.61 2.61 0 01.496 1.881 2.55 2.55 0 01-.926 1.694l-3.398 2.74a3.047 3.047 0 01-2.335.66 3.112 3.112 0 01-2.097-1.261 3.414 3.414 0 01.064-4.122l.62-.789-6.2-7.968a3.8 3.8 0 01-.743-2.937l.28-3.435-4.43 3.173-.014.009a.743.743 0 00-.08.712s3.897 9.252 4.268 10.068a2.63 2.63 0 01.094 1.95 2.482 2.482 0 01-1.256 1.442l-3.885 1.902a3.023 3.023 0 01-1.334.311c-1.19 0-2.331-.706-2.867-1.907-.628-1.406-.25-3.054.918-4.01l.769-.628-1.18-2.465c-.246-.514-.048-1.14.444-1.398.49-.257 1.088-.05 1.334.465l1.095 2.286 2.274-1.1-2.502-6.094a2.908 2.908 0 01.065-2.36l-2.39-2.814a5.659 5.659 0 00-.923 1.943 1.004 1.004 0 01-.96.767.957.957 0 01-.262-.037c-.53-.152-.842-.724-.698-1.279a7.672 7.672 0 012.183-3.691l5.437-5.236-1.947-5.602a16.3 16.3 0 01-.292-.935c-.088.024-.176.049-.264.07a17.05 17.05 0 01-4.493.512.933.933 0 01-.05-.003l-2.154-.167a5.956 5.956 0 011.004 3.324c0 3.204-2.495 5.81-5.56 5.81-3.066 0-5.56-2.606-5.56-5.81 0-2.7 1.772-4.976 4.164-5.625zm11.35 33.195c.273.612.971.877 1.556.591l3.886-1.901a.447.447 0 00.225-.26.472.472 0 00-.017-.35L56.1 45.62l-2.931 1.434-1.403 1.148a1.257 1.257 0 00-.34 1.485zm5.076-47.474c-1.648 0-2.988 1.404-2.988 3.129s1.34 3.128 2.988 3.128c1.647 0 2.988-1.403 2.988-3.128s-1.34-3.129-2.988-3.129zM69.416 17.46l3.156 4.084c.377.487 1.053.592 1.509.233.236-.186.385-.456.421-.76a1.152 1.152 0 00-.261-.887l-3.156-4.533a16.033 16.033 0 00-2.891-2.864 10.798 10.798 0 00-5.584-2.173 1.388 1.388 0 00-1.081.375c-.3.278-.47.661-.483 1.08-.024.802.558 1.482 1.324 1.548.58.05 1.161.154 1.73.309 2.107.574 3.946 1.815 5.316 3.588zm-2.733 33.43c.19.26.467.425.777.467.31.042.617-.044.865-.244l3.398-2.74a.47.47 0 00.077-.642c-.387-.518-.873-1.169-1.398-1.875l-2.564 2.068-1.131 1.439a1.265 1.265 0 00-.024 1.527zm.53-5.11l1.985-1.588-4.724-6.744h-3.61c.059.186.148.362.27.519l6.079 7.813zM54.297 33.845l5.439-3.895a.957.957 0 011.062-.04c.332.203.523.588.49.989l-.365 4.465h3.285l1.023-4.136c.4-1.62.474-3.322.221-4.972h-8.675l-4.91 4.727 2.43 2.862zm.854-15.241l1.935 5.569h7.917l-1.973-8.417a7.796 7.796 0 00-.824-.118c-1.822-.158-3.205-1.778-3.148-3.688a3.71 3.71 0 01.643-1.982l-.683-.133a4.778 4.778 0 01-2.887.702c-1.087.853-1.728 2.187-1.728 3.62 0 1.521.251 3.017.748 4.447zm-6.847-1.723a15.039 15.039 0 004.261-.537c-.1-.721-.152-1.452-.152-2.187 0-.256.015-.51.042-.76a9.654 9.654 0 01-4.428.946l-5.017-.123a1.127 1.127 0 00-1.145 1.053c-.018.308.082.603.281.829a1.044 1.044 0 00.814.365l5.344.414zm-6.832 8.963c1.969 0 3.57-1.672 3.57-3.727 0-2.056-1.601-3.728-3.57-3.728-1.97 0-3.57 1.672-3.57 3.728 0 2.055 1.6 3.727 3.57 3.727z" fill="#fff"/><path d="M49.017 39.847c-.55 0-.995-.466-.995-1.041 0-.576.446-1.042.995-1.042.55 0 .995.466.995 1.042 0 .575-.446 1.041-.995 1.041z" fill="#fff"/></svg>