<svg width="62" height="70" fill="none" xmlns="http://www.w3.org/2000/svg"><path d="M20.837 28.226a3.391 3.391 0 00-3.387-3.387 3.391 3.391 0 00-3.387 3.387 3.391 3.391 0 003.387 3.387 3.391 3.391 0 003.387-3.387zm-3.387 1.129a1.13 1.13 0 010-2.258 1.13 1.13 0 010 2.258zM31 31.613a3.391 3.391 0 003.388-3.387A3.391 3.391 0 0031 24.839a3.391 3.391 0 00-3.387 3.387A3.391 3.391 0 0031 31.613zm0-4.516a1.13 1.13 0 010 2.258 1.13 1.13 0 010-2.258zm-1.132 9.033H27.61a2.26 2.26 0 01-2.258 2.258h-6.774v2.258h6.774a4.52 4.52 0 004.516-4.517z" fill="#fff"/><path d="M59.225 36.129h-2.258a2.26 2.26 0 00-2.258 2.258v2.258h-9.032v-2.258a2.26 2.26 0 00-2.258-2.258H41.16a2.25 2.25 0 00-.497.059c.217-.747.367-1.52.44-2.317h1.186a5.652 5.652 0 005.645-5.645c0-2.006-1.06-3.761-2.642-4.762a21.708 21.708 0 002.642-10.372v-2.93a3.391 3.391 0 00-3.387-3.388h-1.723a12.52 12.52 0 01-8.148-3.017l-.42-.36A14.101 14.101 0 0025.079 0a14.002 14.002 0 00-9.965 4.128l-.388.388h-.207C6.798 4.516.516 10.798.516 18.52c0 1.301.181 2.596.54 3.845l.683 2.395c-.755.96-1.223 2.154-1.223 3.466A5.652 5.652 0 006.16 33.87h1.186c.356 3.919 2.54 7.31 5.689 9.327-4.92 3.063-8.004 8.496-8.004 14.383v1.129H7.29v6.774A4.52 4.52 0 0011.806 70h24.839v-6.342a7.336 7.336 0 004.853 1.826 7.376 7.376 0 006.828-4.551l3.864-9.274a3.37 3.37 0 00.261-1.304v-2.936h2.258v2.258a2.26 2.26 0 002.258 2.258h2.258a2.26 2.26 0 002.258-2.258v-11.29a2.26 2.26 0 00-2.258-2.258zm-18.064 2.258h2.258v11.29H41.16v-11.29zm-2.258 7.689a16.847 16.847 0 00-3.488-2.877 12.498 12.498 0 003.488-3.338v6.215zm3.387-14.463h-1.13v-1.654l2.886-1.923-1.253-1.879-1.632 1.089v-2.407h1.129a3.391 3.391 0 013.387 3.387 3.391 3.391 0 01-3.387 3.387zm-25.968-25.5l.389-.389a11.76 11.76 0 018.368-3.466 11.84 11.84 0 017.706 2.852l.42.36a14.779 14.779 0 009.62 3.562h1.723a1.13 1.13 0 011.129 1.13v2.931c0 3.364-.879 6.654-2.528 9.575a5.53 5.53 0 00-.86-.087h-1.128v-6.774h-2.258v4.49a53.381 53.381 0 01-18.111-3.547 7.016 7.016 0 01-4.47-6.508v-4.13zm-2.258.684v3.445a9.21 9.21 0 001.543 5.068l-2.129.473c-3.338.743-5.729 3.476-6.11 6.798H6.16c-.91 0-1.758.237-2.52.62l-.416-1.456a11.745 11.745 0 01-.451-3.226c0-6.322 5.025-11.48 11.29-11.722zM2.774 28.226a3.391 3.391 0 013.387-3.387H7.29v2.407l-1.632-1.089-1.252 1.88 2.884 1.922v1.654H6.16a3.391 3.391 0 01-3.386-3.387zm6.774 4.516v-9.243a5.612 5.612 0 014.421-5.511l3.35-.745a9.108 9.108 0 002.662 1.614 55.611 55.611 0 0018.922 3.697v10.188c0 5.603-4.56 10.161-10.162 10.161H19.71c-5.602 0-10.161-4.558-10.161-10.161zm18.064 35h-2.258v-4.516h-1.129a3.391 3.391 0 01-3.387-3.387 3.391 3.391 0 013.387-3.387 3.391 3.391 0 013.387 3.387v7.903zm-3.387-13.548a5.58 5.58 0 00-1.838.333 14.145 14.145 0 01-3.798-9.422c.033.003.067.002.1.004.505 2.6 2.793 4.568 5.536 4.568 2.744 0 5.031-1.969 5.537-4.568l.1-.004a14.145 14.145 0 01-3.799 9.422 5.581 5.581 0 00-1.838-.333zm-3.18-9.033h6.358a3.382 3.382 0 01-3.179 2.258c-1.47 0-2.71-.947-3.178-2.258zm-5.546-.75c.271.098.544.19.823.268v.244c0 3.964 1.481 7.82 4.084 10.786-1.116 1.032-1.826 2.495-1.826 4.13a5.654 5.654 0 004.516 5.53v2.373h-9.032V51.935h-2.258v4.517H7.334a14.72 14.72 0 018.165-12.041zM9.548 65.483V58.71h2.258v9.032a2.26 2.26 0 01-2.258-2.258zm24.839 2.258H29.87v-7.903c0-1.635-.71-3.098-1.825-4.13 2.602-2.965 4.084-6.822 4.084-10.786v-.244c.278-.079.55-.17.822-.269a14.642 14.642 0 015.963 5.376 2.255 2.255 0 002.247 2.15h1.037l-1.638 2.046c-.053.067-.09.143-.141.212h-3.774v-2.259h-2.258v15.807zm15.806-17.387c0 .15-.03.297-.087.434l-3.865 9.274a5.124 5.124 0 01-4.743 3.163 5.108 5.108 0 01-3.633-1.505l-1.22-1.22v-4.05h2.622a7.53 7.53 0 00-.364 2.259h2.258c0-1.2.413-2.378 1.163-3.316l3.353-4.191v-8.3h3.387c.622 0 1.13.506 1.13 1.13v6.322zm2.258-5.194v-1.129a3.35 3.35 0 00-.208-1.129h2.466v2.258h-2.258zm4.516 4.516v-11.29h2.258l.001 11.29h-2.259z" fill="#fff"/></svg>