<svg width="107" height="107" fill="none" xmlns="http://www.w3.org/2000/svg"><g clip-path="url(#clip0_4858_400)"><path d="M7.685 29.763a68.804 68.804 0 018.131-7.578c.345-.272.841.053.726.477C14.899 28.7 12.03 34.664 7.606 39.1c-.199-3.104-.201-6.235.08-9.336z" fill="#FF901D"/><path d="M7.608 39.101a68.72 68.72 0 01-6.726-9.709c-.226-.393-.828-.253-.85.2-.358 7.047 2.335 15.293 8.895 18.619-.654-2.997-1.125-6.047-1.32-9.11z" fill="#FF901D"/><path d="M8.926 48.21a66.078 66.078 0 015.515-9.367c.25-.354.811-.192.83.241.256 6.088-.788 12.523-3.705 17.866-1.081-2.844-1.993-5.766-2.64-8.74zm2.64 8.742a71.281 71.281 0 01-9.252-7.08c-.335-.302-.861.014-.747.45 1.75 6.731 6.757 13.639 13.884 14.86-1.482-2.647-2.809-5.393-3.885-8.23zm3.887 8.228a65.027 65.027 0 012.569-10.49c.137-.41.719-.418.863-.01 2.023 5.71 2.842 12.153 1.622 18.075-1.856-2.401-3.572-4.925-5.054-7.575zm5.053 7.576a72.713 72.713 0 01-10.89-4.052c-.408-.19-.818.265-.582.65 3.637 5.93 10.445 11.065 17.617 10.18-2.202-2.11-4.282-4.362-6.145-6.778zm6.144 6.776a63.68 63.68 0 01-.634-10.825c.012-.432.567-.609.823-.261 3.622 4.91 6.324 10.876 6.971 16.924-2.519-1.77-4.937-3.705-7.16-5.838zm72.665-49.769a68.763 68.763 0 00-8.131-7.578c-.345-.272-.84.053-.726.477C92.101 28.7 94.97 34.664 99.394 39.1c.199-3.104.202-6.235-.08-9.336z" fill="#FF901D"/><path d="M99.39 39.101a68.804 68.804 0 006.726-9.709c.226-.393.827-.253.85.2.357 7.047-2.336 15.293-8.896 18.619.654-2.997 1.125-6.047 1.32-9.11z" fill="#FF901D"/><path d="M98.074 48.21a66.086 66.086 0 00-5.516-9.367c-.25-.354-.81-.192-.83.241-.256 6.088.789 12.523 3.705 17.866 1.082-2.844 1.994-5.766 2.64-8.74zm-2.642 8.742a71.284 71.284 0 009.252-7.08c.335-.302.861.014.748.45-1.751 6.731-6.758 13.639-13.885 14.86 1.482-2.647 2.809-5.393 3.885-8.23z" fill="#FF901D"/><path d="M91.548 65.18a65.037 65.037 0 00-2.569-10.49c-.137-.41-.719-.418-.863-.01-2.023 5.71-2.842 12.153-1.622 18.075 1.856-2.401 3.572-4.925 5.054-7.575zm-5.055 7.576a72.713 72.713 0 0010.889-4.052c.408-.19.818.265.582.65-3.636 5.93-10.445 11.065-17.616 10.18 2.201-2.11 4.281-4.362 6.145-6.778z" fill="#FF901D"/><path d="M80.351 79.532a63.67 63.67 0 00.634-10.825c-.012-.432-.566-.609-.823-.261-3.622 4.91-6.324 10.876-6.97 16.924 2.518-1.77 4.936-3.705 7.16-5.838z" fill="#FF901D"/><path d="M42.654 88.687c-2.895-1.428-5.54-2.98-7.864-4.615l-.002-.001c-2.594-1.823-4.932-3.729-6.95-5.666l-.002-.001c-2.266-2.17-4.274-4.385-5.968-6.58l-.002-.003c-1.912-2.474-3.563-4.95-4.91-7.357l-.001-.004c-1.527-2.726-2.796-5.414-3.772-7.987 0-.002-.001-.002-.002-.003-1.115-2.935-1.977-5.79-2.564-8.49-.675-3.09-1.106-6.065-1.282-8.843v-.004c-.205-3.199-.18-6.248.075-9.062.004-.034.004-.068.004-.102A63.088 63.088 0 0111.813 17a1.615 1.615 0 00-3.098-.914 66.31 66.31 0 00-2.533 13.777c-.002.031-.002.062-.002.093-.256 2.93-.28 6.086-.069 9.384v.002c.187 2.937.64 6.072 1.348 9.318l.001.007c.621 2.855 1.53 5.866 2.702 8.95v.001c1.034 2.723 2.37 5.556 3.975 8.42v.002l.002.003c1.424 2.546 3.163 5.154 5.17 7.752l.003.003c1.791 2.321 3.906 4.654 6.286 6.934l.001.002c2.137 2.05 4.604 4.062 7.332 5.979h.001c2.46 1.73 5.25 3.37 8.293 4.87a1.615 1.615 0 001.428-2.897zm58.167-58.731c-.001-.03 0-.062-.003-.093a66.258 66.258 0 00-2.533-13.777 1.616 1.616 0 00-3.098.915 63.09 63.09 0 012.399 12.968c0 .034 0 .068.004.102.255 2.814.28 5.863.076 9.063v.004c-.176 2.776-.608 5.751-1.282 8.842v.001c-.587 2.698-1.45 5.554-2.565 8.489 0 .002-.001.002-.002.003-.976 2.573-2.245 5.262-3.773 7.99v.001c-1.346 2.407-2.998 4.882-4.91 7.357v.002h-.001c-1.694 2.196-3.703 4.41-5.969 6.581l-.001.002c-2.018 1.935-4.356 3.841-6.95 5.664l-.002.002h-.001c-2.324 1.635-4.97 3.188-7.864 4.615a1.614 1.614 0 101.429 2.896c3.043-1.5 5.833-3.139 8.292-4.869l.002-.001c2.729-1.918 5.196-3.93 7.332-5.98l.002-.001c2.38-2.281 4.496-4.615 6.286-6.936h.001c2.009-2.601 3.75-5.21 5.173-7.756l.002-.005c1.604-2.865 2.94-5.697 3.972-8.417v-.001c1.172-3.082 2.08-6.091 2.701-8.945l.001-.002c.709-3.25 1.163-6.39 1.35-9.328v-.007c.211-3.298.187-6.451-.068-9.379z" fill="#F7BC14"/><path d="M44.324 61.862c-4.655 0-9.192-1.65-12.803-4.722a19.884 19.884 0 01-7.01-15.165v-5.46c0-.632.247-1.225.694-1.671a2.344 2.344 0 011.665-.689h.006l14.297.032a1.615 1.615 0 01-.004 3.23h-.003l-13.425-.03v4.587c0 4.899 2.14 9.53 5.873 12.706a16.504 16.504 0 0013.355 3.739c.166-.027.333-.055.501-.085a1.616 1.616 0 01.558 3.181c-.183.032-.363.063-.542.092-1.053.17-2.111.255-3.162.255zm18.353 0a19.73 19.73 0 01-3.162-.255c-.179-.03-.36-.06-.542-.092a1.615 1.615 0 11.557-3.18l.502.084a16.506 16.506 0 0013.355-3.739 16.658 16.658 0 005.873-12.706v-4.587l-13.425.03h-.003a1.615 1.615 0 01-.004-3.23l14.297-.032h.006c.629 0 1.22.245 1.665.689.447.446.693 1.039.693 1.67v5.46A19.883 19.883 0 0175.48 57.14a19.745 19.745 0 01-12.803 4.722z" fill="#FFB125"/><path d="M42.883 85.264h21.235c-8.796-11.154-7.879-27.23-7.879-27.23h-5.478s.918 16.076-7.878 27.23z" fill="#FED130"/><path d="M56.237 58.034H50.76s.142 2.496-.223 6.203c-.697 7.066 1.056 14.194 5.19 19.966.258.358.523.712.799 1.06h7.59c-8.796-11.153-7.878-27.229-7.878-27.229z" fill="#F7BC14"/><path d="M37.484 29.528v14.088a26.23 26.23 0 0010.672 21.117 9.014 9.014 0 0010.693 0A26.229 26.229 0 0069.52 43.616V29.528H37.484z" fill="#FED130"/><path d="M61.888 29.528v14.088a26.23 26.23 0 01-10.671 21.117 9.06 9.06 0 01-1.533.91 9.015 9.015 0 009.16-.91 26.229 26.229 0 0010.671-21.117V29.528h-7.627z" fill="#F7BC14"/><path d="M70.666 31.729h-34.33a.937.937 0 01-.938-.937v-3.883c0-.517.42-.936.937-.936h34.331c.518 0 .937.42.937.937v3.882c0 .517-.42.937-.937.937z" fill="#FFB125"/><path d="M70.667 25.973h-6.69v5.756h6.69c.517 0 .936-.42.936-.937v-3.883a.937.937 0 00-.936-.936z" fill="#FF901D"/><path d="M71.716 92.072H35.428a.756.756 0 01-.709-1.017l2.695-7.302a.756.756 0 01.71-.494H69.02c.317 0 .6.197.71.494l2.694 7.302a.756.756 0 01-.709 1.017z" fill="#FFB125"/><path d="M72.422 91.055l-2.694-7.302a.756.756 0 00-.71-.494h-7.37l3.253 8.813h6.812a.756.756 0 00.71-1.017z" fill="#FF901D"/></g><defs><clipPath id="clip0_4858_400"><path fill="#fff" d="M0 0h107v107H0z"/></clipPath></defs></svg>