<svg width="107" height="107" fill="none" xmlns="http://www.w3.org/2000/svg"><g clip-path="url(#clip0_4858_367)"><path d="M35.66 8.46L.27 38.015a.752.752 0 00.061 1.201l13.172 8.89a.751.751 0 01.263.31l6.958 15.245a.752.752 0 001.167.265l35.424-29.648L35.66 8.46z" fill="#F17E7E"/><path d="M28.223 14.671l21.763 25.741 7.328-6.133L35.556 8.546l-7.334 6.125z" fill="#EA5B5B"/><path d="M72.21 49.502L35.814 6.117a1.615 1.615 0 00-2.475 2.075l36.394 43.38 2.479-2.07z" fill="#2D5872"/><path d="M86.029 90.501l-10.202.733-9.539 9.794a1.43 1.43 0 01-1.024.432h-33.55c-1.366 0-1.954-1.73-.872-2.562L61.71 75.163 71.78 58.38c1.688-2.814 5.59-3.248 7.856-.874L98.53 71.98c2.856 2.188 3.032 6.428.369 8.846l-7.942 7.21a9.948 9.948 0 01-4.929 2.465z" fill="#FED9A8"/><path d="M98.528 71.98l-4.62-3.54a5.756 5.756 0 01-1.714 5.683l-7.942 7.21a9.943 9.943 0 01-4.929 2.465l-10.202.733-16.488 16.929h12.63a1.43 1.43 0 001.023-.432l9.538-9.793 10.203-.734a9.945 9.945 0 004.928-2.465l7.942-7.21c2.664-2.418 2.487-6.658-.369-8.846z" fill="#F4C28C"/><path d="M99.736 78.406l-27.15-32.459a1.53 1.53 0 00-2.153-.193l-4.427 3.697a1.53 1.53 0 00-.193 2.155l27.158 32.469a1.53 1.53 0 002.156.19l4.419-3.706a1.53 1.53 0 00.19-2.153z" fill="#AF8A82"/><path d="M84.147 63.742l1.907 2.051a3.5 3.5 0 01-2.952-1.087l-1.735-1.866a3.026 3.026 0 012.78.902z" fill="#E8D06B"/><path d="M94.763 80.49a4.1 4.1 0 005.796.215l5.133-4.77a4.1 4.1 0 10-5.581-6.008l-5.133 4.77a4.1 4.1 0 00-.215 5.793z" fill="#F4C28C"/><path d="M94.978 74.696l5.133-4.769a4.1 4.1 0 016.838 3.658 4.1 4.1 0 00-5.446.12l-5.133 4.769a4.082 4.082 0 00-1.257 2.35 4.1 4.1 0 01-.136-6.128z" fill="#FED9A8"/><path d="M90.65 73.09a4.162 4.162 0 005.884.218l5.043-4.684a4.162 4.162 0 10-5.666-6.1l-5.043 4.685a4.162 4.162 0 00-.217 5.881z" fill="#F4C28C"/><path d="M90.868 67.209l5.043-4.684a4.162 4.162 0 016.948 3.668 4.163 4.163 0 00-5.562.094l-5.042 4.684a4.143 4.143 0 00-1.282 2.43 4.162 4.162 0 01-.104-6.192z" fill="#FED9A8"/><path d="M84.96 67.043a4.162 4.162 0 005.883.218l5.042-4.685a4.162 4.162 0 10-5.666-6.099l-5.042 4.685a4.162 4.162 0 00-.218 5.881z" fill="#F4C28C"/><path d="M85.173 61.162l5.043-4.685a4.162 4.162 0 016.182.58 4.143 4.143 0 00-2.539 1.101l-5.042 4.685a4.163 4.163 0 00-.517 5.52 4.163 4.163 0 01-3.127-7.2z" fill="#FED9A8"/><path d="M79.475 60.769a4.162 4.162 0 005.884.217l5.042-4.684a4.162 4.162 0 00-5.666-6.1l-5.042 4.685a4.162 4.162 0 00-.218 5.882z" fill="#F4C28C"/><path d="M79.693 54.887l5.042-4.684a4.162 4.162 0 016.949 3.665 4.162 4.162 0 00-5.565.09l-5.042 4.685a4.143 4.143 0 00-1.283 2.434 4.162 4.162 0 01-.101-6.19z" fill="#FED9A8"/><path d="M89.109 63.954l-.935.869c-1.472 1.367-3.742 1.315-5.072-.117l-2.355-2.532c-1.152-1.24-3.12-1.278-4.387-.086.708 10.966-14.653 13.075-14.653 13.075l6.53-16.06a7.711 7.711 0 012.024-3.155l4.638-4.364c2.254-2.122 5.758-2.054 7.81.15l6.653 7.146c1.334 1.432 1.22 3.705-.253 5.074z" fill="#FED9A8"/></g><defs><clipPath id="clip0_4858_367"><path fill="#fff" d="M0 0h107v107H0z"/></clipPath></defs></svg>