<svg width="69" height="69" fill="none" xmlns="http://www.w3.org/2000/svg"><path d="M68.955 38.78c.045-.2.034-.41-.03-.604-.79-11.394-10.218-20.26-21.639-20.348C43.474 5.051 30.026-2.218 17.248 1.594 4.47 5.406-2.798 18.854 1.014 31.632A24.144 24.144 0 0014.26 46.756a30.756 30.756 0 00-6.264 4.438L4.717 54.2a3.45 3.45 0 00.26 5.302l3.698 2.774a30.904 30.904 0 0018.43 6.143h3.291a30.905 30.905 0 0018.429-6.143l1.302-.976C60.947 59.835 69.014 50.59 69 39.67c0-.301-.033-.594-.045-.892zm-6.03-10.609a19.41 19.41 0 013.68 9.685l-.976.488-5.646-3.764 1.834-6.409h1.108zm-7.781-6.32a19.614 19.614 0 015.84 4.02h-.034a1.15 1.15 0 00-1.105.835l-2.155 7.542-3.695 1.704-5.695-3.796V27.62l6.41-4.485a1.15 1.15 0 00.434-1.283zM29.168 27.29a1.15 1.15 0 00-.296.368 1.174 1.174 0 00-.034.125l-3.06-3.06 3.652-3.654a24.251 24.251 0 003.116 2.4h-.002a21.97 21.97 0 00-3.376 3.821zm-1.513 2.561a21.67 21.67 0 00-2.278 8.28 23.946 23.946 0 00-4.87-8.14l3.642-3.646 3.506 3.506zm2.715-.159l.92.46 1.856 4.64-4.625 4.63-.888-.444a19.4 19.4 0 012.737-9.286zm-2.134 12.153a1.15 1.15 0 001.327-.216l5.214-5.213 4.523 1.81 2.144 7.505c.021.058.047.114.078.168a30.663 30.663 0 00-12.771-2.777c-.271 0-.542.011-.813.018l-.002-.006a19.786 19.786 0 01-.23-1.554l.53.265zm11.88-5.766l-4.73-1.893-2.117-5.29a1.15 1.15 0 00-.554-.602l-1.035-.52a19.637 19.637 0 017.477-5.927c-.15.477.026.995.434 1.284L46 27.62v4.536l-5.885 3.922zm7.035-1.927l5.443 3.637c.01.024.007.05.019.074.021.04.045.078.071.115l-1.8 6.294h-7.466l-1.831-6.41 5.563-3.71zm5.235-13.296v.006l.3.886-5.535 3.87-5.535-3.876.299-.886a19.05 19.05 0 0110.471 0zm-7.464-2.919a21.697 21.697 0 00-10.48 3.999 21.894 21.894 0 01-3.383-2.495l9.327-9.324a21.822 21.822 0 014.536 7.82zm-6.175-9.438l-9.315 9.315a21.782 21.782 0 01-5.553-13.055L23.744 2.9a21.765 21.765 0 0115.001 5.597zM21.451 3.07l.132 1.852a24.07 24.07 0 006.218 14.523l-3.651 3.651L9.556 8.498A21.711 21.711 0 0121.452 3.07zM7.929 10.124l14.596 14.597-3.642 3.642a24.075 24.075 0 00-14.532-6.21l-1.853-.132A21.712 21.712 0 017.93 10.124zM2.332 24.316l1.856.132c4.852.34 9.45 2.29 13.064 5.544l-9.325 9.327a21.77 21.77 0 01-5.595-15.003zM9.54 40.96l9.344-9.34a21.752 21.752 0 015.396 11.834 30.586 30.586 0 00-7.15 1.955 21.906 21.906 0 01-7.59-4.45zm41.766 16.56c-.048.053-.1.1-.157.143l-3.704 2.775a28.59 28.59 0 01-17.048 5.682h-3.29a28.59 28.59 0 01-17.048-5.682l-3.7-2.775a1.15 1.15 0 01-.087-1.767l3.275-3.007a28.372 28.372 0 017.935-5.108c.175-.033.34-.106.48-.213a28.346 28.346 0 0129.995 5.32l3.28 3.008c.467.43.499 1.157.07 1.625zm-1.8-6.327a30.753 30.753 0 00-6.617-4.622h8.386l2.53 2.53-2.072 4.14-2.227-2.047zm4.093 6.925a3.28 3.28 0 00-.182-3.105l2.495-4.992h6.628l.512 1.023a19.47 19.47 0 01-9.453 7.074zm10.868-9.382l-.18-.38a1.15 1.15 0 00-1.036-.635h-7.574l-2.634-2.635 2.027-7.096 3.479-1.605 6.364 4.242a1.15 1.15 0 001.15.073l.601-.301a19.486 19.486 0 01-2.197 8.337z" fill="#fff"/></svg>