<svg width="62" height="62" fill="none" xmlns="http://www.w3.org/2000/svg"><path d="M46.566 15.565h-.13v-4.15h7.91a1.816 1.816 0 001.626-2.629l-1.54-3.078 1.54-3.08A1.816 1.816 0 0054.347 0h-9.728a1.816 1.816 0 00-1.816 1.816v13.749H28.925v-4.15h7.912a1.816 1.816 0 001.624-2.629l-1.539-3.078 1.54-3.08A1.816 1.816 0 0036.836 0h-9.728a1.816 1.816 0 00-1.817 1.816v13.749h-9.859c-1.39 0-2.736.185-4.018.531v-4.68h7.912a1.816 1.816 0 001.624-2.63l-1.54-3.078 1.54-3.08A1.816 1.816 0 0019.327 0H9.599a1.816 1.816 0 00-1.817 1.816V17.6C3.137 20.262 0 25.27 0 31.002v13.617C0 54.218 7.766 62 17.38 62h27.24C54.217 62 62 54.234 62 44.62V30.997c0-8.51-6.923-15.434-15.434-15.434zm4.21-9.045l.632 1.262h-4.973v-4.15h4.973l-.631 1.263a1.816 1.816 0 000 1.625zm-17.51 0l.632 1.262h-4.973v-4.15h4.973l-.632 1.263a1.816 1.816 0 000 1.625zm-17.51 0l.632 1.262h-4.973v-4.15h4.973l-.632 1.263a1.816 1.816 0 000 1.625zm-.322 12.677h31.133c6.507 0 11.8 5.294 11.8 11.801v.004c0 3.935-1.937 7.425-4.906 9.57a9.539 9.539 0 00.757-3.733v-.004c0-5.292-4.305-9.597-9.597-9.597H17.38c-5.292 0-9.597 4.305-9.597 9.6 0 1.325.27 2.587.758 3.735a11.795 11.795 0 01-4.907-9.575c0-6.507 5.294-11.8 11.8-11.8zm35.15 17.642a5.97 5.97 0 01-5.963 5.964H17.379a5.972 5.972 0 01-5.964-5.968 5.97 5.97 0 015.964-5.964h27.242a5.97 5.97 0 015.964 5.964v.004zM26.98 58.367v-4.15h8.04v4.15h-8.04zM58.367 44.62c0 7.593-6.143 13.748-13.748 13.748h-5.966v-5.966a1.816 1.816 0 00-1.816-1.816H25.163a1.816 1.816 0 00-1.816 1.816v5.966H17.38c-7.593 0-13.748-6.143-13.748-13.748v-3.682c2.833 3.36 7.071 5.498 11.8 5.498h31.134c4.729 0 8.967-2.138 11.8-5.498v3.682z" fill="#fff"/></svg>