<svg width="62" height="49" fill="none" xmlns="http://www.w3.org/2000/svg"><path d="M60.184 33.721c-2.86 0-4.355.734-5.675 1.38-1.144.562-2.049 1.006-4.053 1.006s-2.909-.444-4.054-1.005c-1.111-.545-2.348-1.152-4.42-1.329v-16.11h18.202c1.003 0 1.816-.8 1.816-1.786 0-.987-.813-1.788-1.816-1.788H41.983V6.335c0-2.959-2.445-5.365-5.45-5.365-3.004 0-5.449 2.406-5.449 5.365v7.754h-7.446V6.335c0-2.959-2.445-5.365-5.45-5.365-3.004 0-5.448 2.406-5.448 5.365v7.754H1.816C.813 14.09 0 14.89 0 15.877s.813 1.787 1.816 1.787h18.189v16.11c-2.064.18-3.297.784-4.407 1.328-1.145.562-2.049 1.005-4.053 1.005-2.005 0-2.91-.444-4.054-1.005-1.32-.647-2.815-1.38-5.675-1.38-1.003 0-1.816.8-1.816 1.787 0 .987.813 1.787 1.816 1.787 2.005 0 2.91.443 4.054 1.005 1.32.647 2.815 1.38 5.675 1.38s4.355-.733 5.674-1.38c1.145-.562 2.05-1.005 4.054-1.005 2.004 0 2.909.443 4.054 1.005 1.319.647 2.814 1.38 5.674 1.38 2.86 0 4.355-.733 5.674-1.38 1.145-.562 2.05-1.005 4.053-1.005 2.005 0 2.91.443 4.054 1.005 1.32.647 2.815 1.38 5.674 1.38 2.86 0 4.355-.733 5.674-1.38 1.145-.562 2.05-1.005 4.054-1.005 1.003 0 1.816-.8 1.816-1.787 0-.987-.813-1.788-1.816-1.788zM34.717 6.335c0-.988.815-1.791 1.816-1.791 1.002 0 1.817.803 1.817 1.79v7.755h-3.633V6.335zm-18.345 7.754V6.335c0-.988.815-1.791 1.817-1.791 1.001 0 1.816.803 1.816 1.79v7.755h-3.633zm21.978 3.575v6.453H23.638v-6.453H38.35zm-3.296 17.438c-1.145.562-2.049 1.005-4.053 1.005-2.005 0-2.909-.444-4.054-1.005-.897-.44-1.876-.92-3.31-1.182v-6.229H38.35v6.232c-1.425.262-2.4.74-3.295 1.179zm25.13 6.968c-2.86 0-4.355.734-5.675 1.38-1.144.562-2.049 1.006-4.053 1.006s-2.909-.444-4.054-1.005c-1.319-.647-2.814-1.38-5.674-1.38-2.86 0-4.355.733-5.674 1.38-1.145.561-2.049 1.005-4.053 1.005-2.005 0-2.909-.444-4.054-1.005-1.32-.647-2.814-1.38-5.674-1.38-2.86 0-4.355.733-5.674 1.38-1.146.561-2.05 1.005-4.054 1.005-2.005 0-2.91-.444-4.054-1.005-1.32-.647-2.815-1.38-5.675-1.38-1.003 0-1.816.8-1.816 1.786 0 .987.813 1.788 1.816 1.788 2.005 0 2.91.443 4.054 1.005 1.32.647 2.815 1.38 5.675 1.38s4.355-.733 5.674-1.38c1.145-.562 2.05-1.005 4.054-1.005 2.004 0 2.909.443 4.054 1.005 1.319.647 2.814 1.38 5.674 1.38 2.86 0 4.355-.733 5.674-1.38 1.145-.562 2.05-1.005 4.053-1.005 2.005 0 2.91.443 4.054 1.005 1.32.647 2.815 1.38 5.674 1.38 2.86 0 4.355-.733 5.674-1.38 1.145-.562 2.05-1.005 4.054-1.005 1.003 0 1.816-.8 1.816-1.788 0-.986-.813-1.787-1.816-1.787z" fill="#fff"/></svg>