<svg width="44" height="54" fill="none" xmlns="http://www.w3.org/2000/svg"><path d="M38.92 0H5.121A4.752 4.752 0 00.375 4.746v44.508A4.752 4.752 0 005.121 54h33.8a4.752 4.752 0 004.746-4.746V4.746A4.752 4.752 0 0038.92 0zm0 50.836h-5.666V43.98c0-.874-.708-1.583-1.582-1.583H12.369c-.873 0-1.582.709-1.582 1.582v6.856H5.121c-.872 0-1.582-.71-1.582-1.582V28.582h9.496c.751 4.28 4.494 7.541 8.986 7.541 4.49 0 8.234-3.262 8.986-7.541h9.495v20.672c0 .872-.71 1.582-1.582 1.582zm-24.969-.02v-5.254H30.09v5.255H13.951zM5.121 3.165h5.666V10c0 .874.709 1.582 1.582 1.582h19.303c.874 0 1.582-.708 1.582-1.582V3.164h5.666c.873 0 1.583.71 1.583 1.582v20.672h-9.496c-.752-4.28-4.495-7.541-8.986-7.541-4.491 0-8.235 3.262-8.986 7.541H3.539V4.746c0-.872.71-1.582 1.582-1.582zm24.969 0v5.254H13.951V3.164H30.09zM16.276 25.418a5.97 5.97 0 015.745-4.377 5.969 5.969 0 015.744 4.377H16.276zm11.49 3.164a5.97 5.97 0 01-5.745 4.377 5.97 5.97 0 01-5.745-4.377h11.49z" fill="#fff"/></svg>