<svg width="29" height="29" fill="none" xmlns="http://www.w3.org/2000/svg"><path d="M.453 14.5C.453 6.74 6.74.453 14.5.453c7.76 0 14.047 6.287 14.047 14.047 0 7.76-6.287 14.047-14.047 14.047C6.74 28.547.453 22.26.453 14.5zM14.5 26.734c6.723 0 12.234-5.443 12.234-12.234 0-6.723-5.443-12.234-12.234-12.234-6.723 0-12.234 5.443-12.234 12.234 0 6.723 5.443 12.234 12.234 12.234zm.708-5.239l6.52-6.514a.68.68 0 000-.962l-6.52-6.514a.68.68 0 00-.963 0l-.39.39a.677.677 0 00.01.97l4.843 4.672H7.93a.682.682 0 00-.68.68v.566c0 .374.306.68.68.68h10.778l-4.848 4.673a.682.682 0 00-.011.968l.39.391a.687.687 0 00.969 0z" fill="#fff" fill-opacity=".4"/></svg>